# xmcd CD database file
# Copyright (C) 1993-1998 Ti Kan
#
# Track frame offsets:
#	150
#	16248
#	37228
#	49073
#	61605
#	65713
#	73360
#	96248
#	110663
#	123778
#	151443
#	158120
#	162405
#	176085
#	197785
#	213968
#	233530
#	248838
#	269953
#	286175
#	299208
#	315168
#	327278
#
# Disc length: 4418 seconds
#
# Revision: 1
# Processed by: cddbd v1.4b41PL1 Copyright (c) Steve Scherf et al.
# Submitted via: CDValet v3.31 - Copyright (c) 1997 Greg Leichner
#
DISCID=5f114017
DTITLE=Tom Waits - A Nickel's Worth Of Dreams
DYEAR=1900
DGENRE=
TTITLE0=Poncho's Lament
TTITLE1=Blue Skies
TTITLE2=Apartment For Rent
TTITLE3=Heart Of Saturday Night
TTITLE4=Conversation
TTITLE5=Bronx Lullabye
TTITLE6=Warm Beer And Cold Women
TTITLE7=Stray Dog
TTITLE8=What Else Is New
TTITLE9=Just Another Dime Store Novel
TTITLE10=Scarecrow
TTITLE11=A Nickel's Worth Of Dreams
TTITLE12=Tie Undone (Early Version Of Mr. Henry)
TTITLE13=Playin' Hooky
TTITLE14=Saving All My Love For You
TTITLE15=(Meet Me In) Paradise Alley
TTITLE16=Annie's Back In Town
TTITLE17=Bad Liver And A Broken Heart
TTITLE18=With A Suitcase (Rhythm Section)
TTITLE19=With A Suitcase (Streetband)
TTITLE20=Old Boyfriends
TTITLE21=Take Care Of All Of My Children
TTITLE22=Rat's Theme
EXTD=
EXTT0=
EXTT1=
EXTT2=
EXTT3=
EXTT4=
EXTT5=
EXTT6=
EXTT7=
EXTT8=
EXTT9=
EXTT10=
EXTT11=
EXTT12=
EXTT13=
EXTT14=
EXTT15=
EXTT16=
EXTT17=
EXTT18=
EXTT19=
EXTT20=
EXTT21=
EXTT22=
PLAYORDER=
